<svg width="37" height="34" viewBox="0 0 37 34" fill="none" xmlns="http://www.w3.org/2000/svg">
<path d="M32.1585 26.9167V24.5849C32.1585 23.4264 31.4153 22.3845 30.2819 21.9542L27.2457 20.8016C25.8041 20.2543 24.1612 20.8471 23.4669 22.1651L23.2026 22.6667C23.2026 22.6667 19.4711 21.9583 16.4858 19.125C13.5005 16.2917 12.7542 12.75 12.7542 12.75L13.2826 12.4992C14.6713 11.8402 15.2959 10.2809 14.7193 8.91275L13.5048 6.03106C13.0515 4.95536 11.9538 4.25 10.7331 4.25H8.27629C6.62757 4.25 5.29102 5.51853 5.29102 7.08333C5.29102 19.6018 15.9834 29.75 29.1732 29.75C30.8219 29.75 32.1585 28.4815 32.1585 26.9167Z" fill="#448519"/>
</svg>
