<svg width="37" height="33" viewBox="0 0 37 33" fill="none" xmlns="http://www.w3.org/2000/svg">
<path fill-rule="evenodd" clip-rule="evenodd" d="M8.07031 2.75C5.30889 2.75 3.07031 4.98858 3.07031 7.75V25.25C3.07031 28.0114 5.30889 30.25 8.07032 30.25H28.776C31.5374 30.25 33.776 28.0114 33.776 25.25V7.75C33.776 4.98858 31.5374 2.75 28.776 2.75H8.07031ZM27.6348 9.625C28.4827 9.625 29.1701 9.00939 29.1701 8.25C29.1701 7.49061 28.4827 6.875 27.6348 6.875C26.7869 6.875 26.0995 7.49061 26.0995 8.25C26.0995 9.00939 26.7869 9.625 27.6348 9.625ZM26.0995 16.5C26.0995 20.297 22.6627 23.375 18.4231 23.375C14.1836 23.375 10.7467 20.297 10.7467 16.5C10.7467 12.703 14.1836 9.625 18.4231 9.625C22.6627 9.625 26.0995 12.703 26.0995 16.5ZM18.4231 20.625C20.9669 20.625 23.029 18.7782 23.029 16.5C23.029 14.2218 20.9669 12.375 18.4231 12.375C15.8794 12.375 13.8173 14.2218 13.8173 16.5C13.8173 18.7782 15.8794 20.625 18.4231 20.625Z" fill="#448519"/>
</svg>
