<svg width="32" height="27" viewBox="0 0 32 27" fill="none" xmlns="http://www.w3.org/2000/svg">
<path fill-rule="evenodd" clip-rule="evenodd" d="M8.04991 4.5C8.04991 5.74264 6.86611 6.75 5.40582 6.75C3.94552 6.75 2.76172 5.74264 2.76172 4.5C2.76172 3.25736 3.94552 2.25 5.40582 2.25C6.86611 2.25 8.04991 3.25736 8.04991 4.5ZM8.04991 9.5625V24.75H2.76172V9.5625H8.04991ZM12.0161 9.5625H17.3043V10.5091C18.1313 10.2603 19.0212 10.125 19.9484 10.125C24.3292 10.125 27.8806 13.1471 27.8806 16.875V24.75H22.5924V16.875C22.5924 15.6324 21.4086 14.625 19.9484 14.625C18.4881 14.625 17.3043 15.6324 17.3043 16.875V24.75H12.0161V16.875V9.5625Z" fill="#448519"/>
</svg>
