<svg width="35" height="30" viewBox="0 0 35 30" fill="none" xmlns="http://www.w3.org/2000/svg">
<path fill-rule="evenodd" clip-rule="evenodd" d="M9.2573 3.75C6.14828 3.75 3.62793 5.98858 3.62793 8.75V21.25C3.62793 24.0114 6.14828 26.25 9.2573 26.25H26.1454C29.2544 26.25 31.7748 24.0114 31.7748 21.25V8.75C31.7748 5.98858 29.2544 3.75 26.1454 3.75H9.2573ZM9.84279 9.2199C9.35776 8.93269 8.70243 9.04911 8.37907 9.47992C8.05571 9.91072 8.18678 10.4928 8.67181 10.78L13.9933 13.931C16.2387 15.2606 19.164 15.2606 21.4095 13.931L26.7309 10.78C27.2159 10.4928 27.347 9.91072 27.0236 9.47992C26.7003 9.04911 26.045 8.93269 25.5599 9.2199L20.2385 12.3709C18.7021 13.2806 16.7006 13.2806 15.1642 12.3709L9.84279 9.2199Z" fill="#448519"/>
</svg>
