<svg width="30" height="28" viewBox="0 0 30 28" fill="none" xmlns="http://www.w3.org/2000/svg">
<path d="M20.5912 0C17.1291 0 14.3225 3.03515 14.3225 6.77919C14.3225 7.34495 14.3866 7.89452 14.5074 8.41988C11.1784 8.41988 6.16433 7.72671 1.97675 3.40587C1.41991 2.83131 0.393099 3.21546 0.431724 4.02629C1.05232 17.0542 6.4698 20.8543 9.25965 21.0908C7.45813 22.9233 4.8412 24.3697 2.20788 25.0189C1.5129 25.1902 1.34122 25.9738 2.02079 26.2014C3.90506 26.8326 6.6021 27.0757 8.05383 27.1167C18.3238 27.1167 26.671 18.2142 26.8568 7.15593C28.2051 6.25286 29.0688 4.29207 29.5541 2.90303C29.6723 2.56474 29.134 2.17057 28.8117 2.30875C27.8044 2.74062 26.5257 2.843 25.4364 2.47747C24.2868 0.96479 22.5432 0 20.5912 0Z" fill="#448519"/>
</svg>
