<svg width="35" height="31" viewBox="0 0 35 31" fill="none" xmlns="http://www.w3.org/2000/svg">
<path fill-rule="evenodd" clip-rule="evenodd" d="M31.7748 15.5C31.7748 22.6337 25.4739 28.4167 17.7013 28.4167C15.5515 28.4167 13.5142 27.9742 11.6917 27.1832L5.00645 28.2058C4.32971 28.3093 3.7514 27.7175 3.87049 27.0433L4.94467 20.9625C4.09984 19.3034 3.62793 17.4523 3.62793 15.5C3.62793 8.36633 9.92881 2.58334 17.7013 2.58334C25.4739 2.58334 31.7748 8.36633 31.7748 15.5ZM22.0797 20.6667H21.2571C16.1843 20.6667 12.0719 16.5543 12.0719 11.4815C12.0719 10.8474 12.586 10.3333 13.2201 10.3333H13.9616C14.7133 10.3333 15.3936 10.7789 15.6939 11.468L15.9004 11.9419C16.2058 12.6427 15.8941 13.459 15.1994 13.7778C15.1994 13.7778 15.5121 15.213 16.7631 16.3611C18.0141 17.5093 19.5778 17.7963 19.5778 17.7963C19.9371 17.1367 20.7255 16.8399 21.4306 17.0988L22.2229 17.3896C22.8884 17.6339 23.3307 18.2675 23.3307 18.9764V19.4157C23.3307 20.1066 22.7706 20.6667 22.0797 20.6667Z" fill="#448519"/>
</svg>
